<svg width="22" height="20" viewBox="0 0 22 20" fill="none" xmlns="http://www.w3.org/2000/svg">
<path fill-rule="evenodd" clip-rule="evenodd" d="M8.19354 2.53576C8.38337 2.06119 8.843 1.75 9.35413 1.75H12.646C13.1571 1.75 13.6168 2.06119 13.8066 2.53576L14.3037 3.77854C14.4176 4.06329 14.6934 4.25 15.0001 4.25H17C18.7949 4.25 20.25 5.70507 20.25 7.5V14.5C20.25 16.2949 18.7949 17.75 17 17.75H5C3.20507 17.75 1.75 16.2949 1.75 14.5V7.5C1.75 5.70508 3.20508 4.25 5 4.25H7.00007C7.30675 4.25 7.58253 4.06329 7.69643 3.77854L8.19354 2.53576ZM9.35413 0.25C8.22965 0.25 7.21845 0.934616 6.80082 1.97868L6.49229 2.75H5C2.37665 2.75 0.25 4.87665 0.25 7.5V14.5C0.25 17.1234 2.37665 19.25 5 19.25H17C19.6234 19.25 21.75 17.1234 21.75 14.5V7.5C21.75 4.87665 19.6234 2.75 17 2.75H15.5078L15.1993 1.97868C14.7817 0.934615 13.7705 0.25 12.646 0.25H9.35413ZM14.5 10.25C14.5 12.183 12.933 13.75 11 13.75C9.067 13.75 7.5 12.183 7.5 10.25C7.5 8.317 9.067 6.75 11 6.75C12.933 6.75 14.5 8.317 14.5 10.25ZM16 10.25C16 13.0114 13.7614 15.25 11 15.25C8.23858 15.25 6 13.0114 6 10.25C6 7.48858 8.23858 5.25 11 5.25C13.7614 5.25 16 7.48858 16 10.25Z" fill="#007AFF"/>
</svg>
