<svg width="72" height="44" viewBox="0 0 72 44" fill="none" xmlns="http://www.w3.org/2000/svg">
<path d="M10 0.5H71.5V43.5H10C4.7533 43.5 0.5 39.2467 0.5 34V10C0.5 4.7533 4.7533 0.5 10 0.5Z" fill="#F6F6F6"/>
<path d="M10 0.5H71.5V43.5H10C4.7533 43.5 0.5 39.2467 0.5 34V10C0.5 4.7533 4.7533 0.5 10 0.5Z" stroke="#CFCFC3"/>
<g clip-path="url(#clip0_989_4640)">
<path d="M36 26.5C35.8082 26.5 35.6162 26.4267 35.4698 26.2803L29.4698 20.2802C29.1767 19.9872 29.1767 19.5126 29.4698 19.2198C29.7628 18.9269 30.2374 18.9267 30.5302 19.2198L36 24.6895L41.4697 19.2198C41.7628 18.9267 42.2374 18.9267 42.5303 19.2198C42.8231 19.5128 42.8233 19.9874 42.5303 20.2802L36.5303 26.2803C36.3838 26.4267 36.1918 26.5 36 26.5ZM48 22C48 15.3833 42.6167 10 36 10C29.3833 10 24 15.3833 24 22C24 28.6167 29.3833 34 36 34C42.6167 34 48 28.6167 48 22ZM46.5 22C46.5 27.7898 41.7898 32.5 36 32.5C30.2102 32.5 25.5 27.7898 25.5 22C25.5 16.2102 30.2102 11.5 36 11.5C41.7898 11.5 46.5 16.2102 46.5 22Z" fill="#28AA7E"/>
</g>
<defs>
<clipPath id="clip0_989_4640">
<rect width="24" height="24" fill="white" transform="translate(24 10)"/>
</clipPath>
</defs>
</svg>
