<svg enable-background="new 0 0 32 32" height="512" viewBox="0 0 32 32" width="512" xmlns="http://www.w3.org/2000/svg"><g id="Layer_2"><path d="m14.218 18.995c.189.166.423.247.657.247.279 0 .556-.116.754-.343l8.607-9.864c.363-.416.32-1.048-.096-1.411-.415-.363-1.046-.321-1.411.096l-8.607 9.864c-.364.416-.321 1.048.096 1.411z"/><path d="m29.377 6.854-14.072 16.127-6.802-7.551c-.371-.41-1.003-.444-1.413-.074s-.443 1.002-.074 1.413l3.969 4.406-1.572 1.805-6.8-7.549c-.371-.41-1.003-.444-1.413-.074s-.443 1.002-.074 1.413l7.556 8.387c.19.21.46.331.743.331h.008c.286-.002.558-.127.746-.343l2.154-2.473 2.24 2.486c.19.21.46.331.743.331h.008c.286-.002.558-.127.746-.343l14.814-16.978c.363-.416.32-1.047-.096-1.411-.415-.361-1.047-.319-1.411.097z"/></g></svg>